# Blender 4.4.3
# www.blender.org
mtllib terrain5.mtl
o Cube
v -1.000000 -0.050000 1.000000
v -1.000000 0.050000 1.000000
v -1.000000 -0.050000 -1.000000
v -1.000000 0.050000 -1.000000
v 1.000000 -0.050000 1.000000
v 1.000000 0.050000 1.000000
v 1.000000 -0.050000 -1.000000
v 1.000000 0.050000 -1.000000
vn -1.0000 -0.0000 -0.0000
vn -0.0000 -0.0000 -1.0000
vn 1.0000 -0.0000 -0.0000
vn -0.0000 -0.0000 1.0000
vn -0.0000 -1.0000 -0.0000
vn -0.0000 1.0000 -0.0000
vt 0.375000 0.000000
vt 0.625000 0.000000
vt 0.625000 0.250000
vt 0.375000 0.250000
vt 0.625000 0.500000
vt 0.375000 0.500000
vt 0.625000 0.750000
vt 0.375000 0.750000
vt 0.625000 1.000000
vt 0.375000 1.000000
vt 0.125000 0.500000
vt 0.125000 0.750000
vt 0.875000 0.500000
vt 0.875000 0.750000
s 0
usemtl 
f 1/1/1 2/2/1 4/3/1 3/4/1
f 3/4/2 4/3/2 8/5/2 7/6/2
f 7/6/3 8/5/3 6/7/3 5/8/3
f 5/8/4 6/7/4 2/9/4 1/10/4
f 3/11/5 7/6/5 5/8/5 1/12/5
f 8/5/6 4/13/6 2/14/6 6/7/6
o Cylinder.001
v -0.885296 0.075000 -1.000000
v -0.885296 0.075000 1.000000
v -0.801963 0.050000 -1.000000
v -0.801963 0.050000 1.000000
v -0.968629 0.050000 -1.000000
v -0.968629 0.050000 1.000000
v -0.718629 0.075000 -1.000000
v -0.718629 0.075000 1.000000
v -0.635296 0.050000 -1.000000
v -0.635296 0.050000 1.000000
v -0.801963 0.050000 -1.000000
v -0.801963 0.050000 1.000000
v -0.551963 0.075000 -1.000000
v -0.551963 0.075000 1.000000
v -0.468629 0.050000 -1.000000
v -0.468629 0.050000 1.000000
v -0.635296 0.050000 -1.000000
v -0.635296 0.050000 1.000000
v -0.385296 0.075000 -1.000000
v -0.385296 0.075000 1.000000
v -0.301963 0.050000 -1.000000
v -0.301963 0.050000 1.000000
v -0.468629 0.050000 -1.000000
v -0.468629 0.050000 1.000000
v -0.218629 0.075000 -1.000000
v -0.218629 0.075000 1.000000
v -0.135296 0.050000 -1.000000
v -0.135296 0.050000 1.000000
v -0.301963 0.050000 -1.000000
v -0.301963 0.050000 1.000000
v -0.051963 0.075000 -1.000000
v -0.051963 0.075000 1.000000
v 0.031371 0.050000 -1.000000
v 0.031371 0.050000 1.000000
v -0.135296 0.050000 -1.000000
v -0.135296 0.050000 1.000000
v 0.114704 0.075000 -1.000000
v 0.114704 0.075000 1.000000
v 0.198037 0.050000 -1.000000
v 0.198037 0.050000 1.000000
v 0.031371 0.050000 -1.000000
v 0.031371 0.050000 1.000000
v 0.281371 0.075000 -1.000000
v 0.281371 0.075000 1.000000
v 0.364704 0.050000 -1.000000
v 0.364704 0.050000 1.000000
v 0.198037 0.050000 -1.000000
v 0.198037 0.050000 1.000000
v 0.448037 0.075000 -1.000000
v 0.448037 0.075000 1.000000
v 0.531371 0.050000 -1.000000
v 0.531371 0.050000 1.000000
v 0.364704 0.050000 -1.000000
v 0.364704 0.050000 1.000000
v 0.614704 0.075000 -1.000000
v 0.614704 0.075000 1.000000
v 0.698037 0.050000 -1.000000
v 0.698037 0.050000 1.000000
v 0.531371 0.050000 -1.000000
v 0.531371 0.050000 1.000000
v 0.781371 0.075000 -1.000000
v 0.781371 0.075000 1.000000
v 0.864704 0.050000 -1.000000
v 0.864704 0.050000 1.000000
v 0.698037 0.050000 -1.000000
v 0.698037 0.050000 1.000000
v 0.948037 0.075000 -1.000000
v 0.948037 0.075000 1.000000
v 1.031371 0.050000 -1.000000
v 1.031371 0.050000 1.000000
v 0.864704 0.050000 -1.000000
v 0.864704 0.050000 1.000000
vn 0.2873 0.9578 -0.0000
vn -0.0000 -1.0000 -0.0000
vn -0.0000 -0.0000 1.0000
vn -0.2873 0.9578 -0.0000
vn -0.0000 -0.0000 -1.0000
vt 1.000000 0.500000
vt 1.000000 1.000000
vt 0.666667 1.000000
vt 0.666667 0.500000
vt 0.333333 1.000000
vt 0.333333 0.500000
vt 0.457846 0.130000
vt 0.250000 0.490000
vt 0.042154 0.130000
vt -0.000000 1.000000
vt -0.000000 0.500000
vt 0.750000 0.490000
vt 0.957846 0.130000
vt 0.542154 0.130000
s 0
f 9/15/7 10/16/7 12/17/7 11/18/7
f 11/18/8 12/17/8 14/19/8 13/20/8
f 12/21/9 10/22/9 14/23/9
f 13/20/10 14/19/10 10/24/10 9/25/10
f 9/26/11 11/27/11 13/28/11
f 15/15/7 16/16/7 18/17/7 17/18/7
f 17/18/8 18/17/8 20/19/8 19/20/8
f 18/21/9 16/22/9 20/23/9
f 19/20/10 20/19/10 16/24/10 15/25/10
f 15/26/11 17/27/11 19/28/11
f 21/15/7 22/16/7 24/17/7 23/18/7
f 23/18/8 24/17/8 26/19/8 25/20/8
f 24/21/9 22/22/9 26/23/9
f 25/20/10 26/19/10 22/24/10 21/25/10
f 21/26/11 23/27/11 25/28/11
f 27/15/7 28/16/7 30/17/7 29/18/7
f 29/18/8 30/17/8 32/19/8 31/20/8
f 30/21/9 28/22/9 32/23/9
f 31/20/10 32/19/10 28/24/10 27/25/10
f 27/26/11 29/27/11 31/28/11
f 33/15/7 34/16/7 36/17/7 35/18/7
f 35/18/8 36/17/8 38/19/8 37/20/8
f 36/21/9 34/22/9 38/23/9
f 37/20/10 38/19/10 34/24/10 33/25/10
f 33/26/11 35/27/11 37/28/11
f 39/15/7 40/16/7 42/17/7 41/18/7
f 41/18/8 42/17/8 44/19/8 43/20/8
f 42/21/9 40/22/9 44/23/9
f 43/20/10 44/19/10 40/24/10 39/25/10
f 39/26/11 41/27/11 43/28/11
f 45/15/7 46/16/7 48/17/7 47/18/7
f 47/18/8 48/17/8 50/19/8 49/20/8
f 48/21/9 46/22/9 50/23/9
f 49/20/10 50/19/10 46/24/10 45/25/10
f 45/26/11 47/27/11 49/28/11
f 51/15/7 52/16/7 54/17/7 53/18/7
f 53/18/8 54/17/8 56/19/8 55/20/8
f 54/21/9 52/22/9 56/23/9
f 55/20/10 56/19/10 52/24/10 51/25/10
f 51/26/11 53/27/11 55/28/11
f 57/15/7 58/16/7 60/17/7 59/18/7
f 59/18/8 60/17/8 62/19/8 61/20/8
f 60/21/9 58/22/9 62/23/9
f 61/20/10 62/19/10 58/24/10 57/25/10
f 57/26/11 59/27/11 61/28/11
f 63/15/7 64/16/7 66/17/7 65/18/7
f 65/18/8 66/17/8 68/19/8 67/20/8
f 66/21/9 64/22/9 68/23/9
f 67/20/10 68/19/10 64/24/10 63/25/10
f 63/26/11 65/27/11 67/28/11
f 69/15/7 70/16/7 72/17/7 71/18/7
f 71/18/8 72/17/8 74/19/8 73/20/8
f 72/21/9 70/22/9 74/23/9
f 73/20/10 74/19/10 70/24/10 69/25/10
f 69/26/11 71/27/11 73/28/11
f 75/15/7 76/16/7 78/17/7 77/18/7
f 77/18/8 78/17/8 80/19/8 79/20/8
f 78/21/9 76/22/9 80/23/9
f 79/20/10 80/19/10 76/24/10 75/25/10
f 75/26/11 77/27/11 79/28/11
